<?xml version="1.0" encoding="UTF-8"?>
<svg width="18px" height="18px" viewBox="0 0 18 18" version="1.1" xmlns="http://www.w3.org/2000/svg" xmlns:xlink="http://www.w3.org/1999/xlink">
    <!-- Generator: Sketch 50.2 (55047) - http://www.bohemiancoding.com/sketch -->
    <title>icon</title>
    <desc>Created with Sketch.</desc>
    <defs></defs>
    <g id="Desktop" stroke="none" stroke-width="1" fill="none" fill-rule="evenodd">
        <g id="Navigation-Bar" transform="translate(-30.000000, -37.000000)" fill="#FFFFFF" fill-rule="nonzero">
            <g id="Group-5" transform="translate(30.000000, 37.000000)">
                <g id="Group-4">
                    <g id="icon">
                        <path d="M15.5625,1.76785714 L14.7589285,1.76785714 L14.7589285,0.428571431 L13.4196429,0.428571431 L13.4196429,1.76785714 L4.58035714,1.76785714 L4.58035714,0.428571431 L3.24107143,0.428571431 L3.24107143,1.76785714 L2.4375,1.76785714 C1.32977679,1.76785714 0.428571431,2.6690625 0.428571431,3.77678571 L0.428571431,15.5625 C0.428571431,16.6702232 1.32977679,17.5714285 2.4375,17.5714285 L15.5625,17.5714285 C16.6702232,17.5714285 17.5714285,16.6702232 17.5714285,15.5625 L17.5714285,3.77678571 C17.5714285,2.6690625 16.6702232,1.76785714 15.5625,1.76785714 Z M16.2321429,15.5625 C16.2321429,15.9317411 15.9317411,16.2321429 15.5625,16.2321429 L2.4375,16.2321429 C2.06825893,16.2321429 1.76785714,15.9317411 1.76785714,15.5625 L1.76785714,6.72321426 L16.2321429,6.72321426 L16.2321429,15.5625 Z M16.2321429,5.38392857 L1.76785714,5.38392857 L1.76785714,3.77678571 C1.76785714,3.40754464 2.06825893,3.10714286 2.4375,3.10714286 L3.24107143,3.10714286 L3.24107143,4.44642857 L4.58035714,4.44642857 L4.58035714,3.10714286 L13.4196429,3.10714286 L13.4196429,4.44642857 L14.7589286,4.44642857 L14.7589286,3.10714286 L15.5625,3.10714286 C15.9317411,3.10714286 16.2321429,3.40754464 16.2321429,3.77678571 L16.2321429,5.38392857 Z M2.97321429,8.12946426 L4.3125,8.12946426 L4.3125,9.46875002 L2.97321429,9.46875002 L2.97321429,8.12946426 Z M5.65178574,8.12946426 L6.99107143,8.12946426 L6.99107143,9.46875002 L5.65178574,9.46875002 L5.65178574,8.12946426 Z M8.33035712,8.12946426 L9.66964288,8.12946426 L9.66964288,9.46875002 L8.33035712,9.46875002 L8.33035712,8.12946426 Z M11.0089286,8.12946426 L12.3482143,8.12946426 L12.3482143,9.46875002 L11.0089286,9.46875002 L11.0089286,8.12946426 Z M13.6875,8.12946426 L15.0267857,8.12946426 L15.0267857,9.46875002 L13.6875,9.46875002 L13.6875,8.12946426 Z M2.97321429,10.8080357 L4.3125,10.8080357 L4.3125,12.1473214 L2.97321429,12.1473214 L2.97321429,10.8080357 Z M5.65178574,10.8080357 L6.99107143,10.8080357 L6.99107143,12.1473214 L5.65178574,12.1473214 L5.65178574,10.8080357 Z M8.33035712,10.8080357 L9.66964288,10.8080357 L9.66964288,12.1473214 L8.33035712,12.1473214 L8.33035712,10.8080357 Z M11.0089286,10.8080357 L12.3482143,10.8080357 L12.3482143,12.1473214 L11.0089286,12.1473214 L11.0089286,10.8080357 Z M2.97321429,13.4866072 L4.3125,13.4866072 L4.3125,14.8258929 L2.97321429,14.8258929 L2.97321429,13.4866072 Z M5.65178574,13.4866072 L6.99107143,13.4866072 L6.99107143,14.8258929 L5.65178574,14.8258929 L5.65178574,13.4866072 Z M8.33035712,13.4866072 L9.66964288,13.4866072 L9.66964288,14.8258929 L8.33035712,14.8258929 L8.33035712,13.4866072 Z M11.0089286,13.4866072 L12.3482143,13.4866072 L12.3482143,14.8258929 L11.0089286,14.8258929 L11.0089286,13.4866072 Z M13.6875,10.8080357 L15.0267857,10.8080357 L15.0267857,12.1473214 L13.6875,12.1473214 L13.6875,10.8080357 Z" id="Combined-Shape"></path>
                    </g>
                </g>
            </g>
        </g>
    </g>
</svg>