<?xml version="1.0" encoding="UTF-8"?>
<svg width="222px" height="55px" viewBox="0 0 222 55" version="1.1" xmlns="http://www.w3.org/2000/svg" xmlns:xlink="http://www.w3.org/1999/xlink">
    <!-- Generator: Sketch 50.2 (55047) - http://www.bohemiancoding.com/sketch -->
    <title>Group</title>
    <desc>Created with Sketch.</desc>
    <defs></defs>
    <g id="Page-1" stroke="none" stroke-width="1" fill="none" fill-rule="evenodd">
        <g id="Group">
            <g id="icons" fill="#FFFFFF" fill-rule="nonzero">
                <g id="calendar-icon" transform="translate(71.000000, 1.000000)">
                    <path d="M49.1458333,4.40178571 L46.5565474,4.40178571 L46.5565474,0.30952382 L42.2410716,0.30952382 L42.2410716,4.40178571 L13.7589286,4.40178571 L13.7589286,0.30952382 L9.4434524,0.30952382 L9.4434524,4.40178571 L6.85416667,4.40178571 C3.28483632,4.40178571 0.38095239,7.15546875 0.38095239,10.5401786 L0.38095239,46.5520833 C0.38095239,49.9367931 3.28483632,52.690476 6.85416667,52.690476 L49.1458333,52.690476 C52.7151636,52.690476 55.6190474,49.9367931 55.6190474,46.5520833 L55.6190474,10.5401786 C55.6190474,7.15546875 52.7151636,4.40178571 49.1458333,4.40178571 Z M51.3035716,46.5520833 C51.3035716,47.68032 50.3356102,48.5982144 49.1458333,48.5982144 L6.85416667,48.5982144 C5.66438989,48.5982144 4.69642856,47.68032 4.69642856,46.5520833 L4.69642856,19.5431547 L51.3035716,19.5431547 L51.3035716,46.5520833 Z M51.3035716,15.4508929 L4.69642856,15.4508929 L4.69642856,10.5401786 C4.69642856,9.411942 5.66438989,8.49404763 6.85416667,8.49404763 L9.4434524,8.49404763 L9.4434524,12.5863095 L13.7589286,12.5863095 L13.7589286,8.49404763 L42.2410716,8.49404763 L42.2410716,12.5863095 L46.5565477,12.5863095 L46.5565477,8.49404763 L49.1458333,8.49404763 C50.3356102,8.49404763 51.3035716,9.411942 51.3035716,10.5401786 L51.3035716,15.4508929 Z M8.58035716,23.8400297 L12.8958333,23.8400297 L12.8958333,27.9322917 L8.58035716,27.9322917 L8.58035716,23.8400297 Z M17.2113096,23.8400297 L21.5267857,23.8400297 L21.5267857,27.9322917 L17.2113096,27.9322917 L17.2113096,23.8400297 Z M25.8422618,23.8400297 L30.1577382,23.8400297 L30.1577382,27.9322917 L25.8422618,27.9322917 L25.8422618,23.8400297 Z M34.4732144,23.8400297 L38.7886905,23.8400297 L38.7886905,27.9322917 L34.4732144,27.9322917 L34.4732144,23.8400297 Z M43.1041667,23.8400297 L47.4196428,23.8400297 L47.4196428,27.9322917 L43.1041667,27.9322917 L43.1041667,23.8400297 Z M8.58035716,32.0245535 L12.8958333,32.0245535 L12.8958333,36.1168154 L8.58035716,36.1168154 L8.58035716,32.0245535 Z M17.2113096,32.0245535 L21.5267857,32.0245535 L21.5267857,36.1168154 L17.2113096,36.1168154 L17.2113096,32.0245535 Z M25.8422618,32.0245535 L30.1577382,32.0245535 L30.1577382,36.1168154 L25.8422618,36.1168154 L25.8422618,32.0245535 Z M34.4732144,32.0245535 L38.7886905,32.0245535 L38.7886905,36.1168154 L34.4732144,36.1168154 L34.4732144,32.0245535 Z M8.58035716,40.2090776 L12.8958333,40.2090776 L12.8958333,44.3013394 L8.58035716,44.3013394 L8.58035716,40.2090776 Z M17.2113096,40.2090776 L21.5267857,40.2090776 L21.5267857,44.3013394 L17.2113096,44.3013394 L17.2113096,40.2090776 Z M25.8422618,40.2090776 L30.1577382,40.2090776 L30.1577382,44.3013394 L25.8422618,44.3013394 L25.8422618,40.2090776 Z M34.4732144,40.2090776 L38.7886905,40.2090776 L38.7886905,44.3013394 L34.4732144,44.3013394 L34.4732144,40.2090776 Z M43.1041667,32.0245535 L47.4196428,32.0245535 L47.4196428,36.1168154 L43.1041667,36.1168154 L43.1041667,32.0245535 Z" id="Combined-Shape"></path>
                </g>
                <g id="location-icon">
                    <path d="M0,20.6256445 C0,9.23341354 10.0734375,0 22.5,0 C34.9265626,0 45,9.23341354 45,20.6256445 C45,32.0161566 22.5,55 22.5,55 C22.5,55 0,32.0161566 0,20.6256445 Z M22.5,3.43760743 C12.16125,3.43760743 3.75000001,11.1490203 3.75000001,20.6256445 C3.75000001,27.1785837 14.3109375,40.8499483 22.5,49.7567892 C30.6890625,40.8499483 41.2499999,27.1785837 41.2499999,20.6256445 C41.2499999,11.1490203 32.83875,3.43760743 22.5,3.43760743 Z M14.9990625,17.1820213 C14.9990625,13.3860433 18.3571875,10.3068065 22.4990625,10.3068065 C26.6409375,10.3068065 29.9990625,13.3860433 29.9990625,17.1820213 C29.9990625,20.9797181 26.6409375,24.0563768 22.4990625,24.0563768 C18.3571875,24.0563768 14.9990625,20.9797181 14.9990625,17.1820213 Z M26.25,17.1880371 C26.25,15.288759 24.5709375,13.7504297 22.5,13.7504297 C20.4290625,13.7504297 18.75,15.288759 18.75,17.1880371 C18.75,19.0864558 20.4290625,20.6247852 22.5,20.6247852 C24.5709375,20.6247852 26.25,19.0864558 26.25,17.1880371 Z" id="Shape"></path>
                </g>
            </g>
            <g id="hamburguer-icon" transform="translate(159.000000, 8.000000)" stroke="#FFFFFF">
                <path d="M0,0 L63,0" id="Shape"></path>
                <path d="M0,21 L63,21" id="Shape"></path>
                <path d="M0,42 L42,42" id="Shape"></path>
            </g>
        </g>
    </g>
</svg>