<?xml version="1.0" encoding="UTF-8"?>
<svg width="14px" height="18px" viewBox="0 0 14 18" version="1.1" xmlns="http://www.w3.org/2000/svg" xmlns:xlink="http://www.w3.org/1999/xlink">
    <!-- Generator: Sketch 50.2 (55047) - http://www.bohemiancoding.com/sketch -->
    <title>Shape</title>
    <desc>Created with Sketch.</desc>
    <defs></defs>
    <g id="Desktop" stroke="none" stroke-width="1" fill="none" fill-rule="evenodd">
        <g id="Body" transform="translate(-297.000000, -3366.000000)" fill="#FFFFFF" fill-rule="nonzero">
            <g id="Group-15" transform="translate(-11.000000, 3051.000000)">
                <g id="Group-10" transform="translate(308.000000, 314.000000)">
                    <path d="M0,7.75021094 C0,4.02184443 3.13395833,1 7,1 C10.8660417,1 14,4.02184443 14,7.75021094 C14,11.4780149 7,19 7,19 C7,19 0,11.4780149 0,7.75021094 Z M7,2.12503516 C3.7835,2.12503516 1.16666667,4.64877027 1.16666667,7.75021094 C1.16666667,9.89480921 4.45229167,14.369074 7,17.2840401 C9.54770833,14.369074 12.8333333,9.89480921 12.8333333,7.75021094 C12.8333333,4.64877027 10.2165,2.12503516 7,2.12503516 Z M4.666375,6.62320698 C4.666375,5.3808869 5.711125,4.37313666 6.99970833,4.37313666 C8.28829167,4.37313666 9.33304167,5.3808869 9.33304167,6.62320698 C9.33304167,7.86608957 8.28829167,8.87299603 6.99970833,8.87299603 C5.711125,8.87299603 4.666375,7.86608957 4.666375,6.62320698 Z M8.16666667,6.62517579 C8.16666667,6.00359386 7.64429167,5.50014063 7,5.50014063 C6.35570833,5.50014063 5.83333333,6.00359386 5.83333333,6.62517579 C5.83333333,7.24647645 6.35570833,7.74992969 7,7.74992969 C7.64429167,7.74992969 8.16666667,7.24647645 8.16666667,6.62517579 Z" id="Shape"></path>
                </g>
            </g>
        </g>
    </g>
</svg>