<?xml version="1.0" encoding="UTF-8"?>
<svg width="62px" height="18px" viewBox="0 0 62 18" version="1.1" xmlns="http://www.w3.org/2000/svg" xmlns:xlink="http://www.w3.org/1999/xlink">
    <!-- Generator: Sketch 50.2 (55047) - http://www.bohemiancoding.com/sketch -->
    <title>Group 14</title>
    <desc>Created with Sketch.</desc>
    <defs></defs>
    <g id="Desktop" stroke="none" stroke-width="1" fill="none" fill-rule="evenodd">
        <g id="Temp-Landing" transform="translate(-1335.000000, -4589.000000)">
            <g id="Group-8" transform="translate(-130.000000, 3199.000000)">
                <g id="Group-14" transform="translate(1459.000000, 1383.000000)">
                    <g id="Group-24">
                        <g id="Twitter_Logo_Blue">
                            <rect id="Rectangle-path" x="0" y="0" width="32" height="32"></rect>
                            <path d="M12.2896,24.1272 C19.8368,24.1272 23.9648,17.8744 23.9648,12.452 C23.9648,12.2744 23.9648,12.0976 23.9528,11.9216 C24.7558651,11.3407287 25.4490844,10.6215035 26,9.7976 C25.2511032,10.1294414 24.4566634,10.3470629 23.6432,10.4432 C24.4997952,9.93038565 25.1408988,9.12381759 25.4472,8.1736 C24.641726,8.65156425 23.7605169,8.98840962 22.8416,9.1696 C21.5696662,7.81711542 19.5485755,7.48609007 17.9116394,8.36214394 C16.2747034,9.23819782 15.42902,11.1034606 15.8488,12.912 C12.5495166,12.7465996 9.47558062,11.1882586 7.392,8.6248 C6.30289821,10.4997158 6.85919031,12.8982876 8.6624,14.1024 C8.00939296,14.083046 7.3706235,13.9068905 6.8,13.5888 C6.8,13.6056 6.8,13.6232 6.8,13.6408 C6.80053451,15.5940744 8.17740119,17.2764281 10.092,17.6632 C9.48789568,17.827952 8.85406447,17.8520354 8.2392,17.7336 C8.77675834,19.4051383 10.3172596,20.5502271 12.0728,20.5832 C10.619788,21.7251456 8.82484761,22.3450622 6.9768,22.3432 C6.65032286,22.3425732 6.32416325,22.322806 6,22.284 C7.87650876,23.4882212 10.0599307,24.1269735 12.2896,24.124" id="Shape" fill="#FFFFFF" fill-rule="nonzero"></path>
                        </g>
                        <g id="flogo-HexRBG-Wht-1024" transform="translate(52.000000, 8.000000)" fill="#FFFFFF" fill-rule="nonzero">
                            <path d="M15.116875,-3.39600902e-10 L0.8825,-3.39600902e-10 C0.394971874,0.000258810734 -8.63419429e-05,0.395596812 -3.39600902e-10,0.883125 L-3.39600902e-10,15.1175 C0.000345004966,15.6049924 0.395632503,16.0000001 0.883125,16 L8.546875,16 L8.546875,9.8125 L6.46875,9.8125 L6.46875,7.390625 L8.546875,7.390625 L8.546875,5.609375 C8.546875,3.5428125 9.80890625,2.4175 11.6525,2.4175 C12.5354687,2.4175 13.294375,2.48328125 13.515625,2.51265625 L13.515625,4.671875 L12.2403125,4.671875 C11.2403125,4.671875 11.046875,5.14828125 11.046875,5.84734375 L11.046875,7.390625 L13.4451562,7.390625 L13.1326562,9.8125 L11.046875,9.8125 L11.046875,16 L15.116875,16 C15.351107,16.0000415 15.5757574,15.9070115 15.7413845,15.7413845 C15.9070115,15.5757574 16.0000415,15.351107 16,15.116875 L16,0.8825 C15.9997412,0.394971874 15.6044032,-8.63419429e-05 15.116875,-3.39600902e-10 Z" id="Shape"></path>
                        </g>
                    </g>
                </g>
            </g>
        </g>
    </g>
</svg>